<svg width="1151" height="409" viewBox="0 0 1151 409" fill="none" xmlns="http://www.w3.org/2000/svg">
<rect y="165" width="166" height="166" fill="#E5004B"/>
<path d="M20.5455 247V289H9.81818V219.182H20.1818V230.091H21.0909C22.7273 226.545 25.2121 223.697 28.5455 221.545C31.8788 219.364 36.1818 218.273 41.4545 218.273C46.1818 218.273 50.3182 219.242 53.8636 221.182C57.4091 223.091 60.1667 226 62.1364 229.909C64.1061 233.788 65.0909 238.697 65.0909 244.636V289H54.3636V245.364C54.3636 239.879 52.9394 235.606 50.0909 232.545C47.2424 229.455 43.3333 227.909 38.3636 227.909C34.9394 227.909 31.8788 228.652 29.1818 230.136C26.5152 231.621 24.4091 233.788 22.8636 236.636C21.3182 239.485 20.5455 242.939 20.5455 247ZM117.806 290.455C111.079 290.455 105.276 288.97 100.397 286C95.5483 283 91.8059 278.818 89.1695 273.455C86.5635 268.061 85.2605 261.788 85.2605 254.636C85.2605 247.485 86.5635 241.182 89.1695 235.727C91.8059 230.242 95.4726 225.97 100.17 222.909C104.897 219.818 110.412 218.273 116.715 218.273C120.351 218.273 123.942 218.879 127.488 220.091C131.033 221.303 134.26 223.273 137.17 226C140.079 228.697 142.397 232.273 144.124 236.727C145.851 241.182 146.715 246.667 146.715 253.182V257.727H92.8968V248.455H135.806C135.806 244.515 135.018 241 133.442 237.909C131.897 234.818 129.685 232.379 126.806 230.591C123.957 228.803 120.594 227.909 116.715 227.909C112.442 227.909 108.745 228.97 105.624 231.091C102.533 233.182 100.154 235.909 98.4877 239.273C96.8211 242.636 95.9877 246.242 95.9877 250.091V256.273C95.9877 261.545 96.8968 266.015 98.715 269.682C100.563 273.318 103.124 276.091 106.397 278C109.67 279.879 113.473 280.818 117.806 280.818C120.624 280.818 123.17 280.424 125.442 279.636C127.745 278.818 129.73 277.606 131.397 276C133.063 274.364 134.351 272.333 135.26 269.909L145.624 272.818C144.533 276.333 142.7 279.424 140.124 282.091C137.548 284.727 134.367 286.788 130.579 288.273C126.791 289.727 122.533 290.455 117.806 290.455Z" fill="white"/>
<path d="M6.18182 40.9091V30.9091H76V40.9091H46.7273V124H35.4545V40.9091H6.18182ZM106.51 82V124H95.7832V30.9091H106.51V65.0909H107.42C109.056 61.4848 111.51 58.6212 114.783 56.5C118.086 54.3485 122.48 53.2727 127.965 53.2727C132.723 53.2727 136.889 54.2273 140.465 56.1364C144.041 58.0151 146.813 60.9091 148.783 64.8182C150.783 68.697 151.783 73.6364 151.783 79.6364V124H141.056V80.3636C141.056 74.8182 139.617 70.5303 136.738 67.5C133.889 64.4394 129.935 62.9091 124.874 62.9091C121.359 62.9091 118.207 63.6515 115.42 65.1364C112.662 66.6212 110.48 68.7879 108.874 71.6364C107.298 74.4848 106.51 77.9394 106.51 82ZM204.521 125.455C197.794 125.455 191.991 123.97 187.112 121C182.263 118 178.521 113.818 175.885 108.455C173.278 103.061 171.975 96.7879 171.975 89.6364C171.975 82.4848 173.278 76.1818 175.885 70.7273C178.521 65.2424 182.188 60.9697 186.885 57.9091C191.612 54.8182 197.127 53.2727 203.43 53.2727C207.066 53.2727 210.657 53.8788 214.203 55.0909C217.748 56.303 220.975 58.2727 223.885 61C226.794 63.697 229.112 67.2727 230.839 71.7273C232.566 76.1818 233.43 81.6667 233.43 88.1818V92.7273H179.612V83.4545H222.521C222.521 79.5151 221.733 76 220.157 72.9091C218.612 69.8182 216.4 67.3788 213.521 65.5909C210.672 63.803 207.309 62.9091 203.43 62.9091C199.157 62.9091 195.46 63.9697 192.339 66.0909C189.248 68.1818 186.869 70.9091 185.203 74.2727C183.536 77.6364 182.703 81.2424 182.703 85.0909V91.2727C182.703 96.5455 183.612 101.015 185.43 104.682C187.278 108.318 189.839 111.091 193.112 113C196.385 114.879 200.188 115.818 204.521 115.818C207.339 115.818 209.885 115.424 212.157 114.636C214.46 113.818 216.445 112.606 218.112 111C219.778 109.364 221.066 107.333 221.975 104.909L232.339 107.818C231.248 111.333 229.415 114.424 226.839 117.091C224.263 119.727 221.082 121.788 217.294 123.273C213.506 124.727 209.248 125.455 204.521 125.455ZM309.246 124L287.974 54.1818H299.246L314.337 107.636H315.065L329.974 54.1818H341.428L356.155 107.455H356.883L371.974 54.1818H383.246L361.974 124H351.428L336.155 70.3636H335.065L319.792 124H309.246ZM427.257 125.455C420.954 125.455 415.423 123.955 410.666 120.955C405.939 117.955 402.242 113.758 399.575 108.364C396.939 102.97 395.62 96.6667 395.62 89.4545C395.62 82.1818 396.939 75.8333 399.575 70.4091C402.242 64.9848 405.939 60.7727 410.666 57.7727C415.423 54.7727 420.954 53.2727 427.257 53.2727C433.56 53.2727 439.075 54.7727 443.802 57.7727C448.56 60.7727 452.257 64.9848 454.893 70.4091C457.56 75.8333 458.893 82.1818 458.893 89.4545C458.893 96.6667 457.56 102.97 454.893 108.364C452.257 113.758 448.56 117.955 443.802 120.955C439.075 123.955 433.56 125.455 427.257 125.455ZM427.257 115.818C432.045 115.818 435.984 114.591 439.075 112.136C442.166 109.682 444.454 106.455 445.939 102.455C447.424 98.4545 448.166 94.1212 448.166 89.4545C448.166 84.7879 447.424 80.4394 445.939 76.4091C444.454 72.3788 442.166 69.1212 439.075 66.6364C435.984 64.1515 432.045 62.9091 427.257 62.9091C422.469 62.9091 418.53 64.1515 415.439 66.6364C412.348 69.1212 410.06 72.3788 408.575 76.4091C407.09 80.4394 406.348 84.7879 406.348 89.4545C406.348 94.1212 407.09 98.4545 408.575 102.455C410.06 106.455 412.348 109.682 415.439 112.136C418.53 114.591 422.469 115.818 427.257 115.818ZM479.108 124V54.1818H489.472V64.7273H490.199C491.472 61.2727 493.775 58.4697 497.108 56.3182C500.442 54.1667 504.199 53.0909 508.381 53.0909C509.169 53.0909 510.154 53.1061 511.335 53.1364C512.517 53.1667 513.411 53.2121 514.017 53.2727V64.1818C513.654 64.0909 512.82 63.9545 511.517 63.7727C510.245 63.5606 508.896 63.4545 507.472 63.4545C504.078 63.4545 501.048 64.1667 498.381 65.5909C495.745 66.9848 493.654 68.9242 492.108 71.4091C490.593 73.8636 489.835 76.6667 489.835 79.8182V124H479.108ZM541.3 30.9091V124H530.573V30.9091H541.3ZM591.152 125.455C585.334 125.455 580.197 123.985 575.743 121.045C571.288 118.076 567.803 113.894 565.288 108.5C562.773 103.076 561.515 96.6667 561.515 89.2727C561.515 81.9394 562.773 75.5758 565.288 70.1818C567.803 64.7879 571.303 60.6212 575.788 57.6818C580.273 54.7424 585.455 53.2727 591.334 53.2727C595.879 53.2727 599.47 54.0303 602.106 55.5455C604.773 57.0303 606.803 58.7273 608.197 60.6364C609.621 62.5151 610.728 64.0606 611.515 65.2727H612.425V30.9091H623.152V124H612.788V113.273H611.515C610.728 114.545 609.606 116.152 608.152 118.091C606.697 120 604.621 121.712 601.925 123.227C599.228 124.712 595.637 125.455 591.152 125.455ZM592.606 115.818C596.909 115.818 600.546 114.697 603.515 112.455C606.485 110.182 608.743 107.045 610.288 103.045C611.834 99.0152 612.606 94.3636 612.606 89.0909C612.606 83.8788 611.849 79.3182 610.334 75.4091C608.818 71.4697 606.576 68.4091 603.606 66.2273C600.637 64.0151 596.97 62.9091 592.606 62.9091C588.061 62.9091 584.273 64.0758 581.243 66.4091C578.243 68.7121 575.985 71.8485 574.47 75.8182C572.985 79.7576 572.243 84.1818 572.243 89.0909C572.243 94.0606 573 98.5758 574.515 102.636C576.061 106.667 578.334 109.879 581.334 112.273C584.364 114.636 588.121 115.818 592.606 115.818ZM716.332 125.455C710.029 125.455 704.499 123.955 699.741 120.955C695.014 117.955 691.317 113.758 688.65 108.364C686.014 102.97 684.695 96.6667 684.695 89.4545C684.695 82.1818 686.014 75.8333 688.65 70.4091C691.317 64.9848 695.014 60.7727 699.741 57.7727C704.499 54.7727 710.029 53.2727 716.332 53.2727C722.635 53.2727 728.15 54.7727 732.877 57.7727C737.635 60.7727 741.332 64.9848 743.968 70.4091C746.635 75.8333 747.968 82.1818 747.968 89.4545C747.968 96.6667 746.635 102.97 743.968 108.364C741.332 113.758 737.635 117.955 732.877 120.955C728.15 123.955 722.635 125.455 716.332 125.455ZM716.332 115.818C721.12 115.818 725.059 114.591 728.15 112.136C731.241 109.682 733.529 106.455 735.014 102.455C736.499 98.4545 737.241 94.1212 737.241 89.4545C737.241 84.7879 736.499 80.4394 735.014 76.4091C733.529 72.3788 731.241 69.1212 728.15 66.6364C725.059 64.1515 721.12 62.9091 716.332 62.9091C711.544 62.9091 707.605 64.1515 704.514 66.6364C701.423 69.1212 699.135 72.3788 697.65 76.4091C696.165 80.4394 695.423 84.7879 695.423 89.4545C695.423 94.1212 696.165 98.4545 697.65 102.455C699.135 106.455 701.423 109.682 704.514 112.136C707.605 114.591 711.544 115.818 716.332 115.818ZM799.274 54.1818V63.2727H761.638V54.1818H799.274ZM772.91 124V44.5455C772.91 40.5455 773.85 37.2121 775.729 34.5454C777.607 31.8788 780.047 29.8788 783.047 28.5454C786.047 27.2121 789.213 26.5454 792.547 26.5454C795.183 26.5454 797.335 26.7576 799.001 27.1818C800.668 27.6061 801.91 28 802.729 28.3636L799.638 37.6364C799.092 37.4545 798.335 37.2273 797.365 36.9545C796.426 36.6818 795.183 36.5454 793.638 36.5454C790.092 36.5454 787.532 37.4394 785.956 39.2273C784.41 41.0151 783.638 43.6364 783.638 47.0909V124H772.91ZM857.988 124V54.1818H868.352V65.0909H869.261C870.715 61.3636 873.064 58.4697 876.306 56.4091C879.549 54.3182 883.443 53.2727 887.988 53.2727C892.594 53.2727 896.428 54.3182 899.488 56.4091C902.579 58.4697 904.988 61.3636 906.715 65.0909H907.443C909.231 61.4848 911.912 58.6212 915.488 56.5C919.064 54.3485 923.352 53.2727 928.352 53.2727C934.594 53.2727 939.7 55.2273 943.67 59.1364C947.64 63.0151 949.625 69.0606 949.625 77.2727V124H938.897V77.2727C938.897 72.1212 937.488 68.4394 934.67 66.2273C931.852 64.0151 928.534 62.9091 924.715 62.9091C919.806 62.9091 916.003 64.3939 913.306 67.3636C910.609 70.303 909.261 74.0303 909.261 78.5455V124H898.352V76.1818C898.352 72.2121 897.064 69.0152 894.488 66.5909C891.912 64.1364 888.594 62.9091 884.534 62.9091C881.746 62.9091 879.14 63.6515 876.715 65.1364C874.321 66.6212 872.382 68.6818 870.897 71.3182C869.443 73.9242 868.715 76.9394 868.715 80.3636V124H857.988ZM973.078 124V54.1818H983.805V124H973.078ZM978.533 42.5455C976.442 42.5455 974.639 41.8333 973.124 40.4091C971.639 38.9848 970.896 37.2727 970.896 35.2727C970.896 33.2727 971.639 31.5606 973.124 30.1364C974.639 28.7121 976.442 28 978.533 28C980.624 28 982.412 28.7121 983.896 30.1364C985.412 31.5606 986.169 33.2727 986.169 35.2727C986.169 37.2727 985.412 38.9848 983.896 40.4091C982.412 41.8333 980.624 42.5455 978.533 42.5455ZM1018.02 82V124H1007.29V54.1818H1017.66V65.0909H1018.57C1020.2 61.5455 1022.69 58.697 1026.02 56.5455C1029.35 54.3636 1033.66 53.2727 1038.93 53.2727C1043.66 53.2727 1047.79 54.2424 1051.34 56.1818C1054.88 58.0909 1057.64 61 1059.61 64.9091C1061.58 68.7879 1062.57 73.697 1062.57 79.6364V124H1051.84V80.3636C1051.84 74.8788 1050.41 70.6061 1047.57 67.5455C1044.72 64.4545 1040.81 62.9091 1035.84 62.9091C1032.41 62.9091 1029.35 63.6515 1026.66 65.1364C1023.99 66.6212 1021.88 68.7879 1020.34 71.6364C1018.79 74.4848 1018.02 77.9394 1018.02 82ZM1115.28 125.455C1108.55 125.455 1102.75 123.97 1097.87 121C1093.02 118 1089.28 113.818 1086.64 108.455C1084.04 103.061 1082.74 96.7879 1082.74 89.6364C1082.74 82.4848 1084.04 76.1818 1086.64 70.7273C1089.28 65.2424 1092.95 60.9697 1097.64 57.9091C1102.37 54.8182 1107.89 53.2727 1114.19 53.2727C1117.83 53.2727 1121.42 53.8788 1124.96 55.0909C1128.51 56.303 1131.74 58.2727 1134.64 61C1137.55 63.697 1139.87 67.2727 1141.6 71.7273C1143.33 76.1818 1144.19 81.6667 1144.19 88.1818V92.7273H1090.37V83.4545H1133.28C1133.28 79.5151 1132.49 76 1130.92 72.9091C1129.37 69.8182 1127.16 67.3788 1124.28 65.5909C1121.43 63.803 1118.07 62.9091 1114.19 62.9091C1109.92 62.9091 1106.22 63.9697 1103.1 66.0909C1100.01 68.1818 1097.63 70.9091 1095.96 74.2727C1094.3 77.6364 1093.46 81.2424 1093.46 85.0909V91.2727C1093.46 96.5455 1094.37 101.015 1096.19 104.682C1098.04 108.318 1100.6 111.091 1103.87 113C1107.14 114.879 1110.95 115.818 1115.28 115.818C1118.1 115.818 1120.64 115.424 1122.92 114.636C1125.22 113.818 1127.21 112.606 1128.87 111C1130.54 109.364 1131.83 107.333 1132.74 104.909L1143.1 107.818C1142.01 111.333 1140.17 114.424 1137.6 117.091C1135.02 119.727 1131.84 121.788 1128.05 123.273C1124.27 124.727 1120.01 125.455 1115.28 125.455Z" fill="black"/>
</svg>
