<?xml version="1.0" encoding="utf-8"?>
<!-- Generator: Adobe Illustrator 24.3.0, SVG Export Plug-In . SVG Version: 6.00 Build 0)  -->
<svg version="1.1"
	 id="svg8" inkscape:version="1.0.2-2 (e86c870879, 2021-01-15)" sodipodi:docname="Katakana letter I.svg" xmlns:cc="http://creativecommons.org/ns#" xmlns:dc="http://purl.org/dc/elements/1.1/" xmlns:inkscape="http://www.inkscape.org/namespaces/inkscape" xmlns:rdf="http://www.w3.org/1999/02/22-rdf-syntax-ns#" xmlns:sodipodi="http://sodipodi.sourceforge.net/DTD/sodipodi-0.dtd" xmlns:svg="http://www.w3.org/2000/svg"
	 xmlns="http://www.w3.org/2000/svg" xmlns:xlink="http://www.w3.org/1999/xlink" x="0px" y="0px" viewBox="0 0 420 420"
	 style="enable-background:new 0 0 420 420;" xml:space="preserve">
<sodipodi:namedview  bordercolor="#666666" borderopacity="1.0" id="base" inkscape:bbox-nodes="true" inkscape:bbox-paths="true" inkscape:current-layer="layer1" inkscape:cx="345.76714" inkscape:cy="230.41447" inkscape:document-rotation="0" inkscape:document-units="px" inkscape:guide-bbox="true" inkscape:pageopacity="0.0" inkscape:pageshadow="2" inkscape:snap-bbox="true" inkscape:snap-center="true" inkscape:snap-object-midpoints="false" inkscape:window-height="657" inkscape:window-maximized="1" inkscape:window-width="1280" inkscape:window-x="-8" inkscape:window-y="-8" inkscape:zoom="0.98994949" pagecolor="#ffffff" showgrid="false" showguides="true" units="px">
	</sodipodi:namedview>
<g id="layer1" transform="translate(0,-185.87499)" inkscape:groupmode="layer" inkscape:label="Layer 1">
	<path d="M300.6,249.7c-8.4-3.6-16.8-4-26-4.4l-2.8,7.6c16.8,8.4,23.6,14,23.6,20.4c0,3.2-3.2,10-10.8,20.4
		c-28,39.6-97.2,112.8-198.4,169.2l5.2,9.6c35-14.4,66.2-32.6,91.8-49.9c22.6-15.3,46.3-34.8,48.2-36.3c3.1-2.6,6.2-5.2,6.2-5.2
		c1.5-1.3,2.8-2.5,3.9-3.4c3.6-3.3,9.2-8.5,15.9-15c41.9-41.1,42.2-53.5,58.5-61c4-1.8,13.2-6.4,17.3-15.4c0.4-0.9,0.7-2,0.7-3.4
		C333.8,272.5,316.2,254.9,300.6,249.7z"/>
</g>
<path d="M244.8,188.4"/>
<path d="M264.7,180.8"/>
<path d="M447.7,238"/>
<path d="M467.6,230.4"/>
</svg>
