<svg width="733" height="432" viewBox="0 0 733 432" fill="none" xmlns="http://www.w3.org/2000/svg">
<path d="M386.809 195.35C397.573 195.556 404.159 189.033 404.399 176.478C404.696 160.971 397.76 148.279 380.13 131.689C362.529 113.622 335.569 96.8536 298.549 80.633L289.696 93.0232C320.102 117.245 339.055 139.771 353.758 159.259C368.476 178.008 375.328 195.131 386.809 195.35Z" fill="black"/>
<path d="M416.545 138.679C427.925 137.17 432.741 129.807 431.086 117.323C429.043 101.904 420.178 89.6288 398.022 75.3792C379.715 62.862 350.125 52.5869 311.384 44.2712L304.501 57.8865C340.24 76.3141 359.647 91.6747 378.538 108.597C395.813 124.24 405.164 140.187 416.545 138.679Z" fill="black"/>
<path d="M57.3525 95.397C67.1774 127.336 66.1778 150.309 78.7326 153.895C87.9765 156.415 96.0391 151.248 99.2379 141.315C107.99 109.879 74.0199 57.8298 38.594 24.4977L29.3025 30.6399C41.0702 50.8728 50.4998 71.2644 57.3525 95.397Z" fill="#E6004B"/>
<path d="M701.979 350.513C691.441 314.365 692.609 288.063 679.008 284.432C668.994 281.896 660.232 288.105 656.727 299.581C647.123 335.849 683.769 394.087 722.062 430.872L732.159 423.502C719.473 400.81 709.322 377.848 701.979 350.513Z" fill="#E6004B"/>
<path d="M286.865 84.1151C292.741 65.2057 308.957 60.8026 307.855 49.8112C306.312 34.4187 271.512 8.48007 248.036 6.94976C235.173 6.01866 223.133 7.77833 212.744 9.37698L209.615 22.4601C254.53 32.9479 252.11 42.0764 249.697 56.7507C236.256 160.811 146.857 315.79 0 418.233L10.0055 429.447C155.056 347.726 241.441 229.136 286.865 84.1151Z" fill="black"/>
<path d="M543.738 122.263C531.066 120.701 521.198 132.731 520.109 131.625C520.105 131.633 520.102 131.641 520.094 131.649C520.067 135.672 520.251 141.608 521.356 148.677C522.781 157.817 525.323 164.296 525.49 165.745C528.675 193.423 531.166 296.594 528.253 338.79C526.767 359.271 522.434 371.851 522.968 382.957C523.947 403.32 535.845 432.436 556.176 431.459C569.115 430.836 574.305 423.166 573.207 400.333C571.426 363.309 563.805 269.046 563.813 179.366C563.813 173.32 572.285 160.724 567.816 147.009C566.811 143.938 546.192 122.569 543.738 122.263Z" fill="#010101"/>
<path d="M563.247 6.31414C551.592 1.14802 539.937 0.574013 527.171 0L523.286 10.9062C546.597 22.9605 556.032 30.9967 556.032 40.1809C556.032 44.773 551.592 54.5313 541.047 69.4556C502.195 126.283 406.177 231.327 265.758 312.263L272.973 326.039C321.537 305.375 364.828 279.257 400.35 254.431C431.708 232.475 464.593 204.492 467.229 202.34C471.531 198.609 475.832 194.877 475.832 194.877C477.913 193.012 479.717 191.29 481.244 189.998C486.239 185.263 494.009 177.801 503.306 168.473C561.444 109.493 561.86 91.6986 584.477 80.9359C590.027 78.3528 602.793 71.7516 608.482 58.8363C609.037 57.5448 609.453 55.9663 609.453 53.9572C609.314 39.0329 584.893 13.7763 563.247 6.31414Z" fill="black"/>
<path d="M684.783 258.437C684.783 265.263 679.25 270.796 672.424 270.796C665.599 270.796 660.065 265.263 660.065 258.437C660.065 251.612 665.599 246.078 672.424 246.078C679.25 246.078 684.783 251.612 684.783 258.437Z" fill="#E5004B"/>
</svg>
