<svg width="911" height="442" viewBox="0 0 911 442" fill="none" xmlns="http://www.w3.org/2000/svg">
<g filter="url(#filter0_d_57_23)">
<path d="M304.498 81.6911L304.126 81.5283L303.891 81.8584L295.038 94.2486L294.762 94.6347L295.133 94.9304C325.497 119.119 344.421 141.611 359.107 161.076L359.113 161.084C362.782 165.758 365.962 170.332 368.852 174.575C369.381 175.352 369.901 176.118 370.413 176.872C372.69 180.23 374.802 183.344 376.846 186.07C381.828 192.714 386.542 197.252 392.548 197.367C398.035 197.472 402.521 195.86 405.661 192.561C408.796 189.268 410.526 184.363 410.648 178.004C410.948 162.294 403.898 149.477 386.229 132.849C368.563 114.719 341.539 97.9209 304.498 81.6911Z" fill="white" stroke="white"/>
<path d="M317.237 45.2985L316.86 45.2175L316.686 45.5618L309.804 59.1771L309.58 59.6197L310.021 59.847C345.714 78.2511 365.086 93.5849 383.952 110.484C388.256 114.382 392.069 118.3 395.55 121.969C396.348 122.81 397.129 123.638 397.895 124.451C400.465 127.176 402.864 129.72 405.152 131.944C411.063 137.689 416.406 141.479 422.359 140.69C428.146 139.923 432.345 137.653 434.867 133.912C437.38 130.183 438.166 125.081 437.33 118.773C435.26 103.149 426.259 90.7654 404.047 76.4785C385.656 63.9061 355.988 53.6163 317.237 45.2985Z" fill="white" stroke="white"/>
<g filter="url(#filter1_d_57_23)">
<path d="M63.1007 96.9132C72.9257 128.852 71.9257 151.824 84.4807 155.41C93.7247 157.93 101.788 152.764 104.986 142.831C113.738 111.394 79.7677 59.3459 44.3423 26.0138L35.0508 32.156C46.8185 52.3889 56.2481 72.7805 63.1007 96.9132Z" fill="#E6004B"/>
<path d="M62.6199 97.0497L62.6229 97.0602C65.904 107.726 67.9688 117.359 69.7428 125.634C70.6228 129.743 71.4318 133.516 72.2818 136.915C73.5578 142.015 74.9308 146.278 76.7928 149.499C78.6628 152.734 81.0468 154.949 84.3438 155.891L84.3498 155.893C89.0978 157.187 93.5688 156.511 97.2648 154.215C100.954 151.923 103.834 148.042 105.462 142.984L105.465 142.975L105.468 142.965C109.901 127.043 103.506 106.017 91.6668 84.889C79.8118 63.7303 62.4298 42.3457 44.685 25.6497L44.3968 25.3785L44.0667 25.5967L34.7751 31.7389L34.3813 31.9993L34.6186 32.4074C46.37 52.6121 55.7809 72.9652 62.6199 97.0497Z" stroke="white"/>
</g>
<path d="M293.09 85.7806L293.091 85.7795C295.991 76.4464 301.438 70.6912 306.085 65.8565L306.288 65.6454C308.525 63.3194 310.59 61.1722 312.035 58.9366C313.535 56.6154 314.391 54.1673 314.101 51.2774C313.7 47.279 311.158 42.6765 307.292 38.0318C303.413 33.3727 298.152 28.6121 292.213 24.2939C280.351 15.6688 265.692 8.74161 253.819 7.96703C240.894 7.03164 228.804 8.80053 218.417 10.3989L218.085 10.45L218.006 10.7768L214.877 23.8599L214.76 24.3488L215.25 24.4631C226.466 27.082 234.705 29.6114 240.719 32.1556C246.737 34.7012 250.491 37.2471 252.775 39.8792C257.146 44.9184 256.24 50.3953 255.078 57.4267C255.036 57.6777 254.994 57.9307 254.952 58.1857L254.951 58.1942L254.95 58.2028C241.53 162.097 152.226 316.961 5.4622 419.339L5 419.661L5.3752 420.082L15.3807 431.295L15.6486 431.595L15.9992 431.398C161.171 349.609 247.633 230.911 293.09 85.7806Z" fill="white" stroke="white"/>
<path d="M549.548 123.284H549.547C543.039 122.481 537.282 125.172 533.059 127.868C531.317 128.98 529.821 130.105 528.64 130.992C528.388 131.181 528.151 131.359 527.929 131.524C527.287 132.001 526.789 132.354 526.424 132.555C526.285 132.632 526.186 132.674 526.12 132.695L525.697 132.266L525.426 132.882L525.344 132.971L525.343 133.162C525.315 137.204 525.501 143.168 526.61 150.27C527.327 154.867 528.324 158.793 529.162 161.748C529.479 162.866 529.774 163.846 530.021 164.669C530.1 164.933 530.174 165.181 530.243 165.411C530.533 166.385 530.706 167.011 530.741 167.319C533.923 194.964 536.414 298.102 533.503 340.271C532.798 349.99 531.45 357.924 530.285 364.783C530.226 365.132 530.167 365.479 530.109 365.822C528.908 372.905 527.947 378.88 528.217 384.497C528.71 394.749 531.949 407.2 537.632 416.978C543.306 426.744 551.505 433.976 561.949 433.474C568.524 433.157 573.248 431.036 576.138 425.99C578.992 421.007 580.005 413.255 579.455 401.826C579.035 393.094 578.291 381.185 577.399 366.91C574.505 320.614 570.055 249.415 570.062 180.882C570.062 179.461 570.564 177.613 571.291 175.358C571.494 174.731 571.712 174.075 571.94 173.393C572.521 171.652 573.158 169.741 573.721 167.714C575.291 162.055 576.319 155.365 574.04 148.371C573.957 148.116 573.789 147.809 573.577 147.477C573.361 147.136 573.078 146.737 572.741 146.292C572.067 145.4 571.161 144.303 570.101 143.079C567.981 140.63 565.226 137.654 562.428 134.768C559.63 131.881 556.784 129.078 554.48 126.974C553.329 125.923 552.307 125.041 551.49 124.409C551.083 124.094 550.719 123.835 550.41 123.647C550.122 123.472 549.817 123.317 549.548 123.284ZM525.4 132.94C525.399 132.942 525.4 132.94 525.403 132.934L525.4 132.94Z" fill="white" stroke="white"/>
<path d="M532.942 1.01661L532.573 1L532.449 1.34832L528.564 12.2546L528.417 12.6659L528.805 12.8665C540.454 18.8906 548.594 23.89 553.818 28.5105C559.035 33.1253 561.281 37.3053 561.281 41.697C561.281 43.8693 560.218 47.3678 557.795 52.237C555.382 57.0859 551.65 63.234 546.387 70.6831L546.382 70.6895C507.571 127.458 411.608 232.449 271.256 313.346L270.84 313.586L271.063 314.012L278.278 327.788L278.493 328.197L278.917 328.016C327.521 307.335 370.843 281.197 406.385 256.357C434.631 236.58 464.115 211.915 471.635 205.625C472.468 204.928 473.032 204.456 473.294 204.243L473.3 204.238L473.305 204.233L479.22 199.103L481.169 197.412L481.715 196.938L481.859 196.814L481.896 196.782L481.905 196.774L481.907 196.771H481.908L481.914 196.765C482.73 196.034 483.497 195.331 484.22 194.668C485.358 193.624 486.385 192.683 487.315 191.896L487.326 191.887L487.336 191.877C492.334 187.139 500.107 179.673 509.408 170.341L509.41 170.339C537.522 141.821 552.151 122.92 562.311 109.794C562.664 109.337 563.012 108.887 563.355 108.445C573.559 95.2725 579.252 88.228 590.438 82.9043C595.999 80.3163 608.919 73.6499 614.688 60.554L614.689 60.5498C615.269 59.2015 615.701 57.5561 615.701 55.4733V55.4687C615.665 51.6146 614.067 47.1499 611.4 42.5322C608.728 37.9059 604.959 33.0842 600.523 28.5056C591.662 19.3599 580.09 11.1313 569.179 7.36449C557.432 2.16268 545.69 1.5898 532.942 1.01661Z" fill="white" stroke="white"/>
<path d="M905.742 262.865H738.742V429.865H905.742V262.865Z" fill="#E5004B" stroke="white"/>
<path d="M767.06 380.365V310.547H777.424V321.091H778.151C779.424 317.637 781.727 314.834 785.06 312.682C788.394 310.531 792.151 309.456 796.333 309.456C797.121 309.456 798.106 309.47 799.287 309.5C800.469 309.531 801.363 309.577 801.969 309.638V320.547C801.606 320.456 800.772 320.32 799.469 320.138C798.197 319.926 796.848 319.819 795.424 319.819C792.03 319.819 789 320.532 786.333 321.956C783.697 323.35 781.606 325.288 780.06 327.773C778.545 330.228 777.787 333.031 777.787 336.182V380.365H767.06ZM845.673 381.819C838.946 381.819 833.143 380.335 828.264 377.365C823.415 374.365 819.673 370.182 817.037 364.819C814.43 359.425 813.127 353.152 813.127 346C813.127 338.849 814.43 332.546 817.037 327.091C819.673 321.606 823.34 317.334 828.037 314.273C832.764 311.182 838.279 309.638 844.582 309.638C848.218 309.638 851.809 310.244 855.355 311.456C858.9 312.668 862.127 314.638 865.037 317.365C867.946 320.062 870.264 323.637 871.991 328.091C873.718 332.546 874.582 338.032 874.582 344.547V349.091H820.764V339.819H863.673C863.673 335.879 862.885 332.364 861.309 329.273C859.764 326.182 857.552 323.744 854.673 321.956C851.824 320.168 848.461 319.273 844.582 319.273C840.309 319.273 836.612 320.335 833.491 322.456C830.4 324.547 828.021 327.274 826.355 330.638C824.688 334.001 823.855 337.607 823.855 341.456V347.638C823.855 352.91 824.764 357.38 826.582 361.047C828.43 364.683 830.991 367.456 834.264 369.365C837.537 371.244 841.34 372.182 845.673 372.182C848.491 372.182 851.037 371.788 853.309 371C855.612 370.182 857.597 368.971 859.264 367.365C860.93 365.729 862.218 363.697 863.127 361.273L873.491 364.182C872.4 367.697 870.567 370.789 867.991 373.456C865.415 376.092 862.234 378.153 858.446 379.638C854.658 381.092 850.4 381.819 845.673 381.819Z" fill="white"/>
<path d="M719.372 418.941C718.1 416.522 717.445 415.292 715.202 412.833C714.136 411.663 711.889 408.59 708.915 404.194C705.95 399.81 702.281 394.139 698.379 387.8C690.572 375.119 681.84 359.779 675.932 346.719C669.501 332.485 665.475 319.59 662.016 308.513C660.3 303.019 658.724 297.972 657.064 293.431C654.57 286.609 651.882 280.932 648.228 276.687C644.56 272.425 639.934 269.624 633.609 268.533L633.605 268.532C628.236 267.652 623.047 267.664 618.235 268.444C602.717 270.964 595.307 282.191 592.497 286.448C592.461 286.503 592.425 286.557 592.391 286.61C585.392 297.155 586.866 310.479 593.021 324.5C599.181 338.534 610.081 353.391 622.161 367.132C634.246 380.879 647.536 393.534 658.502 403.161C669.455 412.777 678.123 419.404 680.961 421.071L680.965 421.073C681.876 421.598 686.253 424.007 692.062 426.681C698.946 429.839 701.539 430.461 703.218 430.787L703.219 430.788L703.249 430.793C704.764 431.084 707.161 431.544 709.707 431.645C712.259 431.745 715.03 431.489 717.233 430.28C720.626 428.432 720.912 425.301 720.998 424.351V424.35C721.065 423.613 721.074 422.164 719.372 418.941ZM719.372 418.941L718.932 419.172L719.371 418.94C719.371 418.94 719.371 418.941 719.372 418.941ZM679.942 390.529V390.53C679.297 390.991 678.211 391.086 676.608 390.662C675.028 390.245 673.067 389.355 670.797 388.038C666.261 385.405 660.583 381.118 654.409 375.702C642.064 364.874 627.797 349.59 616.8 334.159C603.73 315.815 601.572 306.123 604.888 297.97V297.969C606.632 293.67 610.029 289.425 614.044 286.427C618.066 283.423 622.631 281.728 626.71 282.387C631.711 283.194 634.915 287.298 638.149 294.69C639.759 298.37 641.357 302.816 643.188 307.991C643.361 308.481 643.537 308.977 643.714 309.479C645.411 314.282 647.314 319.668 649.6 325.591C658.565 348.8 667.306 364.36 673.209 374.535C673.656 375.305 674.086 376.045 674.498 376.752C676.815 380.732 678.568 383.742 679.581 385.992C680.179 387.32 680.492 388.326 680.533 389.076C680.572 389.792 680.366 390.227 679.942 390.529Z" fill="#E6004B"/>
<path d="M719.372 418.941C718.1 416.522 717.445 415.292 715.202 412.833C714.136 411.663 711.889 408.59 708.915 404.194C705.95 399.81 702.281 394.139 698.379 387.8C690.572 375.119 681.84 359.779 675.932 346.719C669.501 332.485 665.475 319.59 662.016 308.513C660.3 303.019 658.724 297.972 657.064 293.431C654.57 286.609 651.882 280.932 648.228 276.687C644.56 272.425 639.934 269.624 633.609 268.533L633.605 268.532C628.236 267.652 623.047 267.664 618.235 268.444C602.717 270.964 595.307 282.191 592.497 286.448C592.461 286.503 592.425 286.557 592.391 286.61C585.392 297.155 586.866 310.479 593.021 324.5C599.181 338.534 610.081 353.391 622.161 367.132C634.246 380.879 647.536 393.534 658.502 403.161C669.455 412.777 678.123 419.404 680.961 421.071L680.965 421.073C681.876 421.598 686.253 424.007 692.062 426.681C698.946 429.839 701.539 430.461 703.218 430.787L703.219 430.788L703.249 430.793C704.764 431.084 707.161 431.544 709.707 431.645C712.259 431.745 715.03 431.489 717.233 430.28C720.626 428.432 720.912 425.301 720.998 424.351V424.35C721.065 423.613 721.074 422.164 719.372 418.941ZM719.372 418.941L718.932 419.172L719.371 418.94C719.371 418.94 719.371 418.941 719.372 418.941ZM679.942 390.529V390.53C679.297 390.991 678.211 391.086 676.608 390.662C675.028 390.245 673.067 389.355 670.797 388.038C666.261 385.405 660.583 381.118 654.409 375.702C642.064 364.874 627.797 349.59 616.8 334.159C603.73 315.815 601.572 306.123 604.888 297.97V297.969C606.632 293.67 610.029 289.425 614.044 286.427C618.066 283.423 622.631 281.728 626.71 282.387C631.711 283.194 634.915 287.298 638.149 294.69C639.759 298.37 641.357 302.816 643.188 307.991C643.361 308.481 643.537 308.977 643.714 309.479C645.411 314.282 647.314 319.668 649.6 325.591C658.565 348.8 667.306 364.36 673.209 374.535C673.656 375.305 674.086 376.045 674.498 376.752C676.815 380.732 678.568 383.742 679.581 385.992C680.179 387.32 680.492 388.326 680.533 389.076C680.572 389.792 680.366 390.227 679.942 390.529Z" stroke="white"/>
</g>
<defs>
<filter id="filter0_d_57_23" x="0.251953" y="0.483887" width="909.99" height="441.515" filterUnits="userSpaceOnUse" color-interpolation-filters="sRGB">
<feFlood flood-opacity="0" result="BackgroundImageFix"/>
<feColorMatrix in="SourceAlpha" type="matrix" values="0 0 0 0 0 0 0 0 0 0 0 0 0 0 0 0 0 0 127 0" result="hardAlpha"/>
<feOffset dy="4"/>
<feGaussianBlur stdDeviation="2"/>
<feComposite in2="hardAlpha" operator="out"/>
<feColorMatrix type="matrix" values="0 0 0 0 0 0 0 0 0 0 0 0 0 0 0 0 0 0 0.25 0"/>
<feBlend mode="normal" in2="BackgroundImageFix" result="effect1_dropShadow_57_23"/>
<feBlend mode="normal" in="SourceGraphic" in2="effect1_dropShadow_57_23" result="shape"/>
</filter>
<filter id="filter1_d_57_23" x="29.7119" y="24.7432" width="81.667" height="140.301" filterUnits="userSpaceOnUse" color-interpolation-filters="sRGB">
<feFlood flood-opacity="0" result="BackgroundImageFix"/>
<feColorMatrix in="SourceAlpha" type="matrix" values="0 0 0 0 0 0 0 0 0 0 0 0 0 0 0 0 0 0 127 0" result="hardAlpha"/>
<feOffset dy="4"/>
<feGaussianBlur stdDeviation="2"/>
<feComposite in2="hardAlpha" operator="out"/>
<feColorMatrix type="matrix" values="0 0 0 0 0 0 0 0 0 0 0 0 0 0 0 0 0 0 0.25 0"/>
<feBlend mode="normal" in2="BackgroundImageFix" result="effect1_dropShadow_57_23"/>
<feBlend mode="normal" in="SourceGraphic" in2="effect1_dropShadow_57_23" result="shape"/>
</filter>
</defs>
</svg>
