<svg width="805" height="435" viewBox="0 0 805 435" fill="none" xmlns="http://www.w3.org/2000/svg">
<path d="M337.256 81.3267L336.884 81.1639L336.649 81.494L327.796 93.8842L327.52 94.2703L327.891 94.566C358.255 118.754 377.179 141.246 391.865 160.712L391.865 160.712L391.871 160.719C395.54 165.393 398.72 169.967 401.61 174.21C402.139 174.987 402.659 175.754 403.171 176.508C405.448 179.865 407.56 182.979 409.604 185.705C414.586 192.349 419.3 196.887 425.306 197.002C430.793 197.107 435.279 195.495 438.419 192.196C441.554 188.903 443.284 183.998 443.406 177.639C443.706 161.929 436.656 149.112 418.987 132.484C401.321 114.354 374.297 97.5565 337.256 81.3267Z" fill="white" stroke="white"/>
<path d="M349.995 44.9341L349.618 44.8531L349.444 45.1974L342.562 58.8127L342.338 59.2553L342.779 59.4826C378.472 77.8867 397.844 93.2206 416.71 110.12C421.014 114.018 424.827 117.937 428.308 121.605C429.106 122.446 429.887 123.274 430.653 124.087C433.223 126.813 435.622 129.356 437.91 131.58C443.821 137.325 449.164 141.115 455.117 140.326C460.904 139.559 465.103 137.289 467.625 133.548C470.138 129.819 470.924 124.717 470.088 118.409C468.018 102.785 459.017 90.4011 436.805 76.1141C418.414 63.5417 388.746 53.2519 349.995 44.9341Z" fill="white" stroke="white"/>
<path d="M95.3781 96.6854L95.3779 96.6854L95.3811 96.6958C98.6622 107.362 100.727 116.995 102.501 125.27C103.381 129.379 104.19 133.152 105.04 136.551C106.316 141.651 107.689 145.914 109.551 149.135C111.421 152.37 113.805 154.586 117.102 155.527L117.108 155.529C121.856 156.823 126.327 156.147 130.023 153.851C133.712 151.559 136.592 147.678 138.22 142.62L138.223 142.611L138.226 142.601C142.659 126.68 136.264 105.653 124.425 84.5246C112.57 63.366 95.188 41.9813 77.4432 25.2853L77.155 25.0141L76.8249 25.2324L67.5333 31.3746L67.1395 31.6349L67.3768 32.043C79.1282 52.2477 88.5391 72.6008 95.3781 96.6854Z" fill="#E6004B" stroke="white"/>
<path d="M740.968 351.535L740.968 351.535L740.966 351.525C737.446 339.451 735.24 328.506 733.347 319.11C732.407 314.447 731.544 310.165 730.636 306.315C729.271 300.535 727.8 295.72 725.797 292.114C723.786 288.495 721.214 286.054 717.644 285.101L717.638 285.099C712.492 283.796 707.65 284.74 703.65 287.492C699.658 290.238 696.534 294.764 694.756 300.586L694.753 300.595L694.751 300.604C689.897 318.931 696.738 342.705 709.499 366.421C722.274 390.164 741.042 413.96 760.222 432.384L760.524 432.675L760.863 432.427L770.961 425.058L771.319 424.796L771.102 424.41C758.432 401.746 748.299 378.823 740.968 351.535Z" fill="#E6004B" stroke="white"/>
<path d="M325.848 85.4162L325.849 85.4152C328.749 76.0821 334.196 70.3269 338.843 65.4921L339.046 65.281C341.283 62.9551 343.348 60.8078 344.793 58.5722C346.293 56.2511 347.149 53.8029 346.859 50.913C346.458 46.9146 343.916 42.3121 340.05 37.6674C336.171 33.0083 330.91 28.2477 324.971 23.9295C313.109 15.3044 298.45 8.37726 286.577 7.60268C273.652 6.6673 261.562 8.43618 251.175 10.0345L250.843 10.0856L250.764 10.4124L247.635 23.4955L247.518 23.9844L248.008 24.0987C259.224 26.7176 267.463 29.247 273.477 31.7912C279.495 34.3368 283.249 36.8827 285.533 39.5148C289.904 44.554 288.998 50.0309 287.836 57.0623C287.794 57.3133 287.752 57.5663 287.71 57.8213L287.709 57.8298L287.708 57.8384C274.288 161.734 184.984 316.597 38.2205 418.975L37.7583 419.297L38.1335 419.718L48.139 430.931L48.4069 431.232L48.7575 431.034C193.929 349.245 280.391 230.547 325.848 85.4162Z" fill="white" stroke="white"/>
<path d="M582.306 122.919L582.305 122.919C575.797 122.116 570.04 124.807 565.817 127.503C564.075 128.616 562.579 129.74 561.398 130.627C561.146 130.816 560.909 130.994 560.687 131.159C560.045 131.636 559.547 131.989 559.182 132.19C559.043 132.267 558.944 132.31 558.878 132.331L558.455 131.901L558.184 132.517L558.102 132.607L558.101 132.798C558.073 136.839 558.259 142.803 559.368 149.905C560.085 154.502 561.082 158.428 561.92 161.383C562.237 162.501 562.532 163.482 562.779 164.305C562.858 164.569 562.932 164.816 563.001 165.046C563.291 166.02 563.464 166.646 563.499 166.954L563.499 166.954C566.681 194.599 569.172 297.737 566.261 339.906C565.556 349.625 564.208 357.559 563.043 364.419C562.984 364.768 562.925 365.114 562.867 365.457C561.666 372.54 560.705 378.516 560.975 384.133C561.468 394.385 564.707 406.835 570.39 416.614C576.064 426.379 584.263 433.612 594.707 433.11C601.282 432.794 606.006 430.671 608.896 425.625C611.75 420.642 612.763 412.89 612.213 401.461C611.793 392.729 611.049 380.822 610.157 366.546C607.263 320.25 602.813 249.05 602.82 180.517C602.82 179.096 603.322 177.248 604.049 174.993C604.252 174.366 604.47 173.71 604.698 173.028C605.279 171.287 605.916 169.376 606.479 167.349C608.049 161.69 609.077 155 606.798 148.006L606.798 148.006C606.715 147.752 606.547 147.445 606.335 147.112C606.119 146.771 605.836 146.372 605.499 145.927C604.825 145.036 603.919 143.938 602.859 142.714C600.739 140.265 597.984 137.29 595.186 134.403C592.388 131.516 589.542 128.713 587.238 126.609C586.087 125.558 585.065 124.676 584.248 124.045C583.841 123.729 583.477 123.47 583.168 123.282C582.88 123.107 582.575 122.952 582.306 122.919ZM558.158 132.575C558.157 132.577 558.158 132.575 558.161 132.569L558.158 132.575Z" fill="white" stroke="white"/>
<path d="M565.7 0.652238L565.331 0.635628L565.207 0.983946L561.322 11.8902L561.175 12.3015L561.563 12.5021C573.212 18.5262 581.352 23.5256 586.576 28.1461C591.793 32.7609 594.039 36.9409 594.039 41.3326C594.039 43.5049 592.976 47.0034 590.553 51.8726C588.14 56.7216 584.408 62.8696 579.145 70.3188L579.14 70.3251C540.329 127.094 444.366 232.085 304.014 312.982L303.598 313.221L303.821 313.647L311.036 327.423L311.251 327.832L311.675 327.651C360.279 306.97 403.601 280.833 439.143 255.993L439.143 255.993C467.389 236.216 496.873 211.552 504.393 205.262C505.226 204.564 505.79 204.093 506.052 203.879L506.058 203.874L506.063 203.869L511.978 198.739L513.927 197.048L514.473 196.575L514.617 196.45L514.654 196.418L514.663 196.41L514.665 196.408L514.666 196.407L514.666 196.407L514.672 196.402C515.488 195.67 516.255 194.967 516.978 194.304C518.116 193.261 519.143 192.319 520.073 191.532L520.084 191.523L520.094 191.513C525.092 186.775 532.865 179.309 542.166 169.978L542.168 169.976C570.28 141.457 584.909 122.556 595.069 109.43C595.422 108.973 595.77 108.524 596.113 108.081C606.317 94.9082 612.01 87.8636 623.196 82.54C628.757 79.9519 641.677 73.2855 647.446 60.1896L647.447 60.1855C648.027 58.8371 648.459 57.1917 648.459 55.109L648.459 55.1043C648.423 51.2502 646.825 46.7855 644.158 42.1678C641.486 37.5415 637.717 32.7198 633.281 28.1412C624.42 18.9955 612.848 10.7669 601.937 7.00012C590.19 1.79832 578.448 1.22544 565.7 0.652238Z" fill="white" stroke="white"/>
<circle cx="710.931" cy="259.589" r="12.8589" fill="#E5004B" stroke="white"/>
</svg>
