<?xml version="1.0" encoding="utf-8"?>
<!-- Generator: Adobe Illustrator 24.3.0, SVG Export Plug-In . SVG Version: 6.00 Build 0)  -->
<svg version="1.1" id="Layer_1" xmlns="http://www.w3.org/2000/svg" xmlns:xlink="http://www.w3.org/1999/xlink" x="0px" y="0px"
	 viewBox="0 0 595.28 841.89" style="enable-background:new 0 0 595.28 841.89;" xml:space="preserve">
<style type="text/css">
	.st0{fill:#010101;}
</style>
<g id="layer1_1_" transform="translate(0,-185.87499)">
	<path class="st0" d="M310.49,194.45c-32.47-5.59-59.4,24.15-62.07,21.17c-0.01,0.02-0.02,0.04-0.04,0.06
		c-0.57,10.35-0.83,25.65,1.14,43.98c2.54,23.7,8.29,40.69,8.54,44.44c4.78,71.63-1.59,337.47-14.33,445.71
		c-6.37,52.53-19.1,84.37-19.1,113.02c0,52.53,27.06,128.94,79.59,128.94c33.43,0,47.76-19.1,47.76-78
		c0-95.51-7.96-339.06,3.18-569.87c0.75-15.56,24.15-46.93,14.33-82.78C367.28,253.09,316.78,195.54,310.49,194.45z"/>
</g>
</svg>
