<?xml version="1.0" encoding="utf-8"?>
<!-- Generator: Adobe Illustrator 24.3.0, SVG Export Plug-In . SVG Version: 6.00 Build 0)  -->
<svg version="1.1" id="Layer_1" xmlns="http://www.w3.org/2000/svg" xmlns:xlink="http://www.w3.org/1999/xlink" x="0px" y="0px"
	 viewBox="0 0 1080 1080" style="enable-background:new 0 0 1080 1080;" xml:space="preserve">
<path d="M603.32,903.85c54.03,0,86.45-32.42,86.45-93.66c0-75.64-36.02-136.88-126.07-216.13
	c-90.05-86.45-226.93-165.7-414.24-241.34l-43.23,61.24C261.12,529.23,358.38,637.3,434.02,730.95
	C509.67,821,545.69,903.85,603.32,903.85L603.32,903.85z"/>
<path d="M927.51,655.31c57.63,0,86.45-32.42,86.45-93.66c0-75.64-36.02-140.48-136.88-223.33
	C794.23,266.28,653.75,197.84,466.44,133l-43.23,61.24c165.7,111.67,252.15,198.12,335,291.77
	C833.86,572.46,869.88,655.31,927.51,655.31L927.51,655.31z"/>
</svg>
